#!OML:ASF I:\Actors\actors\Patient Classification 2\Patient 1\Session 1\actor1.ASF
:FULLY-SPECIFIED
:DEGREES
546
root -0.509323 18.8428 5.09436 26.523 4.7845 -1.13216
lowerback 28.5564 0.905404 1.14801
upperback 3.22714 1.54268 0.167486
thorax -12.1926 0.648733 -1.05841
lowerneck -11.7569 -1.66641 -2.2475
upperneck 13.4904 -2.71183 5.63132
head 6.13335 -0.982665 1.92208
rclavicle 3.77691e-015 6.16232e-015
rhumerus 1.2198 26.7142 -72.637
rradius 44.5787
rwrist 10.3919
rhand -24.4354 -34.9945
rfingers 7.12502
rthumb 2.05684 -64.9644
lclavicle 3.77691e-015 6.16232e-015
lhumerus 8.24944 -25.9462 77.36
lradius 43.9846
lwrist -13.5098
lhand -20.9536 -43.1207
lfingers 7.12502
lthumb 5.41917 -13.21
rfemur -26.9713 -1.64716 14.852
rtibia 9.19472
rfoot -20.1537 -17.4394
rtoes -3.04685
lfemur -41.4261 -2.36609 -10.9615
ltibia 28.8022
lfoot -14.7586 7.8433
ltoes -55.8876
547
root -0.505782 18.8442 5.09677 26.5171 4.62317 -1.18476
lowerback 28.545 0.993135 1.09651
upperback 3.23627 1.63494 0.143022
thorax -12.1745 0.692204 -1.09105
lowerneck -11.8377 -1.52963 -2.08892
upperneck 13.5195 -2.44474 4.91687
head 6.1337 -0.899944 1.69164
rclavicle 2.28602e-014 -9.74045e-015
rhumerus 1.2917 26.9259 -72.4836
rradius 44.7263
rwrist 10.2836
rhand -24.3186 -34.9471
rfingers 7.12502
rthumb 2.16965 -64.9158
lclavicle 2.28602e-014 -9.74045e-015
lhumerus 8.30693 -25.7351 77.4726
lradius 43.8843
lwrist -13.5921
lhand -20.9429 -43.183
lfingers 7.12502
lthumb 5.42944 -13.2725
rfemur -26.9514 -1.47399 14.8089
rtibia 9.10862
rfoot -20.1119 -17.5047
rtoes -3.10642
lfemur -41.3777 -2.28008 -10.9607
ltibia 28.8139
lfoot -14.7695 7.92045
ltoes -55.8651
548
root -0.505315 18.8458 5.09209 26.5201 4.6794 -1.15084
lowerback 28.6468 0.968729 1.07767
upperback 3.20857 1.59704 0.123531
thorax -12.2606 0.674169 -1.09079
lowerneck -11.7709 -1.33743 -1.94402
upperneck 13.4083 -2.12885 4.4093
head 6.06785 -0.781971 1.53383
rclavicle 7.55382e-015 4.17448e-015
rhumerus 1.3493 27.107 -72.4292
rradius 44.8463
rwrist 10.2555
rhand -24.3424 -34.7537
rfingers 7.12502
rthumb 2.14666 -64.7227
lclavicle 7.55382e-015 4.17448e-015
lhumerus 8.32682 -25.4358 77.6536
lradius 43.7879
lwrist -13.6247
lhand -21.0376 -43.056
lfingers 7.12502
lthumb 5.33802 -13.1433
rfemur -26.9268 -1.52595 14.7993
rtibia 9.06676
rfoot -20.1077 -17.5331
rtoes -3.02195
lfemur -41.4128 -2.33143 -10.9753
ltibia 28.8238
lfoot -14.7193 7.91235
ltoes -55.8243
549
root -0.507232 18.8466 5.08328 26.5276 4.85974 -1.05373
lowerback 28.7862 0.875118 1.0402
upperback 3.18275 1.46699 0.113129
thorax -12.367 0.615846 -1.0349
lowerneck -11.6723 -1.10691 -1.78896
upperneck 13.2217 -1.76309 3.90663
head 5.97355 -0.639527 1.37998
rclavicle -4.37326e-015 2.38542e-015
rhumerus 1.42191 27.2509 -72.4311
rradius 44.9471
rwrist 10.259
rhand -24.3397 -34.5933
rfingers 7.12502
rthumb 2.14925 -64.5622
lclavicle -4.37326e-015 2.38542e-015
lhumerus 8.34896 -25.117 77.771
lradius 43.7332
lwrist -13.5809
lhand -21.1464 -43.0053
lfingers 7.12502
lthumb 5.23301 -13.0899
rfemur -26.9086 -1.7143 14.7924
rtibia 9.05915
rfoot -20.1296 -17.5296
rtoes -2.91509
lfemur -41.4972 -2.45834 -11.0181
ltibia 28.8263
lfoot -14.6325 7.84172
ltoes -55.7929
550
root -0.508398 18.8474 5.07876 26.5338 5.00012 -1.0155
lowerback 28.8362 0.801193 1.01761
upperback 3.19521 1.36536 0.105105
thorax -12.381 0.571047 -0.993049
lowerneck -11.755 -0.925542 -1.59005
upperneck 13.1943 -1.47593 3.40276
head 5.96497 -0.52911 1.21188
rclavicle -2.66371e-014 -1.98785e-015
rhumerus 1.50214 27.3699 -72.4218
rradius 45.0539
rwrist 10.2415
rhand -24.3314 -34.5956
rfingers 7.12502
rthumb 2.1573 -64.5644
lclavicle -2.66371e-014 -1.98785e-015
lhumerus 8.46211 -24.9782 77.6797
lradius 43.7678
lwrist -13.3797
lhand -21.08 -42.9744
lfingers 7.12502
lthumb 5.29714 -13.0606
rfemur -26.8879 -1.84287 14.8173
rtibia 9.03414
rfoot -20.152 -17.517
rtoes -2.83916
lfemur -41.5615 -2.54686 -11.0117
ltibia 28.8336
lfoot -14.5874 7.76713
ltoes -55.7116
551
root -0.507133 18.8485 5.07979 26.5254 5.08719 -1.05638
lowerback 28.8043 0.753387 1.03432
upperback 3.23886 1.30924 0.107836
thorax -12.3143 0.546091 -0.977016
lowerneck -11.9282 -0.772796 -1.46942
upperneck 13.2357 -1.23534 3.03481
head 5.99806 -0.433557 1.09593
rclavicle -1.2921e-014 2.38542e-015
rhumerus 1.58501 27.4743 -72.3959
rradius 45.1613
rwrist 10.1789
rhand -24.4867 -34.4148
rfingers 7.12502
rthumb 2.00733 -64.3851
lclavicle -1.2921e-014 2.38542e-015
lhumerus 8.61988 -24.9408 77.5164
lradius 43.8511
lwrist -13.1669
lhand -21.0967 -42.8094
lfingers 7.12502
lthumb 5.28099 -12.8952
rfemur -26.8007 -1.89104 14.8835
rtibia 8.90124
rfoot -20.1229 -17.5299
rtoes -2.73773
lfemur -41.5854 -2.61358 -10.9306
ltibia 28.8631
lfoot -14.6244 7.74672
ltoes -55.5489
